# 
# Wavefront OBJ file
# Created with Kaydara FBX
# 
mtllib huwan.mtl

g huwan
v 0.407099 0.084473 1.039394
v 0.438550 0.071783 1.025275
v 0.420084 0.081647 1.015981
v 0.426013 0.075999 1.052417
v 0.398366 0.093995 1.117671
v 0.369980 0.102879 1.097749
v 0.339522 0.086153 1.087294
v 0.385330 0.071453 1.032666
v 0.327289 0.119235 1.159377
v 0.304327 0.100192 1.142769
v 0.332355 0.046884 1.091842
v 0.294190 0.058979 1.137254
v 0.377025 0.034443 1.034661
v 0.400944 0.063879 1.133512
v 0.433881 0.050429 1.059611
v 0.424620 0.017765 1.062258
v 0.446575 0.045237 1.032487
v 0.437728 0.014185 1.033973
v 0.390481 0.026623 1.132450
v 0.371159 0.076187 1.192174
v 0.359792 0.038886 1.189889
v 0.303693 0.096840 1.149163
v 0.323254 0.112111 1.166998
v 0.356662 0.109866 1.182126
v 0.348802 0.105461 1.186555
v 0.360809 0.076894 1.194022
v 0.295323 0.059257 1.143823
v 0.353812 0.043051 1.193401
v 0.329724 0.020558 1.178835
v 0.333189 0.013610 1.177828
v 0.301759 0.027680 1.157054
v 0.342410 0.014267 1.105497
v 0.332355 0.046884 1.091842
v 0.385694 0.009771 1.042993
v 0.377025 0.034443 1.034661
v 0.385899 0.029978 1.012593
v 0.397778 0.003081 1.021150
v 0.294190 0.058979 1.137254
v 0.368464 0.007029 1.123604
v 0.403881 0.003924 1.056534
v 0.418956 0.001458 1.030132
v 0.295323 0.059257 1.143823
v 0.303052 0.032879 1.161399
v 0.450836 0.010604 1.005688
v 0.434031 -0.001009 1.003731
v 0.468108 0.005471 0.978146
v 0.484974 0.033270 0.964256
v 0.459268 0.040045 1.005362
v 0.451088 0.067568 0.998133
v 0.464188 0.066110 0.977501
v 0.444659 -0.005526 0.990465
v 0.463146 0.007127 0.972318
v 0.444782 -0.002251 0.986334
v 0.409863 -0.003610 0.999306
v 0.415398 -0.000033 0.994362
v 0.477522 0.033009 0.955759
v 0.484974 0.033270 0.964256
v 0.394773 0.025514 0.990526
v 0.404734 0.025748 0.988655
v 0.433068 0.078821 0.992568
v 0.457572 0.061830 0.973917
v 0.484974 0.033270 0.964256
v 0.432314 0.070688 0.987686
v 0.410072 0.064195 0.989313
v 0.414560 0.054992 0.986888
v 0.404734 0.025748 0.988655
v 0.394773 0.025514 0.990526
v 0.397701 0.067824 1.010990
v 0.385899 0.029978 1.012593
v 0.484974 0.033270 0.964256
v 0.477522 0.033009 0.955759
v 0.448879 0.058004 0.992335
v 0.477522 0.033009 0.955759
v 0.457066 0.039550 0.997074
v 0.457572 0.061830 0.973917
v 0.451069 0.014175 0.997853
v 0.463146 0.007127 0.972318
v 0.444782 -0.002251 0.986334
v 0.435438 0.005090 0.994682
v 0.432314 0.070688 0.987686
v 0.415398 -0.000033 0.994362
v -0.407099 0.084473 1.039394
v -0.438550 0.071783 1.025275
v -0.426013 0.075999 1.052417
v -0.420084 0.081647 1.015981
v -0.398366 0.093995 1.117671
v -0.369980 0.102879 1.097749
v -0.339522 0.086153 1.087294
v -0.385330 0.071453 1.032666
v -0.327289 0.119235 1.159377
v -0.304327 0.100192 1.142769
v -0.332355 0.046884 1.091842
v -0.294190 0.058979 1.137254
v -0.377025 0.034443 1.034661
v -0.400944 0.063879 1.133512
v -0.433881 0.050429 1.059611
v -0.424620 0.017765 1.062258
v -0.446575 0.045237 1.032487
v -0.437728 0.014185 1.033973
v -0.390481 0.026623 1.132450
v -0.371159 0.076187 1.192174
v -0.359792 0.038886 1.189889
v -0.303693 0.096840 1.149163
v -0.323254 0.112111 1.166998
v -0.356662 0.109866 1.182126
v -0.348802 0.105461 1.186555
v -0.360809 0.076894 1.194022
v -0.295323 0.059257 1.143823
v -0.353812 0.043051 1.193401
v -0.329724 0.020558 1.178835
v -0.333189 0.013610 1.177828
v -0.301759 0.027680 1.157054
v -0.342410 0.014267 1.105497
v -0.332355 0.046884 1.091842
v -0.385694 0.009771 1.042993
v -0.377025 0.034443 1.034661
v -0.385899 0.029978 1.012593
v -0.397778 0.003081 1.021150
v -0.294190 0.058979 1.137254
v -0.368464 0.007029 1.123604
v -0.403881 0.003924 1.056534
v -0.418956 0.001458 1.030132
v -0.295323 0.059257 1.143823
v -0.303052 0.032879 1.161399
v -0.450836 0.010604 1.005688
v -0.434031 -0.001009 1.003731
v -0.468108 0.005471 0.978146
v -0.484974 0.033270 0.964256
v -0.459268 0.040045 1.005362
v -0.451088 0.067568 0.998133
v -0.464188 0.066110 0.977501
v -0.444659 -0.005526 0.990465
v -0.463146 0.007127 0.972318
v -0.444782 -0.002251 0.986334
v -0.409863 -0.003610 0.999306
v -0.415398 -0.000033 0.994362
v -0.477522 0.033009 0.955759
v -0.484974 0.033270 0.964256
v -0.394773 0.025514 0.990526
v -0.404734 0.025748 0.988655
v -0.433068 0.078821 0.992568
v -0.457572 0.061830 0.973917
v -0.484974 0.033270 0.964256
v -0.432314 0.070688 0.987686
v -0.410072 0.064195 0.989313
v -0.414560 0.054992 0.986888
v -0.404734 0.025748 0.988655
v -0.394773 0.025514 0.990526
v -0.397701 0.067824 1.010990
v -0.385899 0.029978 1.012593
v -0.484974 0.033270 0.964256
v -0.477522 0.033009 0.955759
v -0.448879 0.058004 0.992335
v -0.477522 0.033009 0.955759
v -0.457572 0.061830 0.973917
v -0.457066 0.039550 0.997074
v -0.451069 0.014175 0.997853
v -0.463146 0.007127 0.972318
v -0.444782 -0.002251 0.986334
v -0.435438 0.005090 0.994682
v -0.432314 0.070688 0.987686
v -0.415398 -0.000033 0.994362
vt 0.629797 0.465853
vt 0.543159 0.372576
vt 0.622404 0.382375
vt 0.548334 0.457939
vt 0.558471 0.682252
vt 0.652836 0.671251
vt 0.758278 0.672663
vt 0.725701 0.466509
vt 0.678262 0.892052
vt 0.770155 0.880892
vt 0.875083 0.659357
vt 0.891327 0.860180
vt 0.831369 0.446941
vt 0.466054 0.686671
vt 0.460028 0.465824
vt 0.363613 0.470662
vt 0.458585 0.371471
vt 0.366123 0.376373
vt 0.363132 0.688102
vt 0.460616 0.899678
vt 0.348841 0.889818
vt 0.773488 0.900985
vt 0.683320 0.921685
vt 0.572053 0.908361
vt 0.573549 0.935659
vt 0.461337 0.928311
vt 0.889067 0.880623
vt 0.344272 0.915347
vt 0.239587 0.907397
vt 0.244335 0.886809
vt 0.134653 0.869926
vt 0.148830 0.679332
vt 0.045562 0.663782
vt 0.191366 0.464284
vt 0.097291 0.450903
vt 0.116766 0.379508
vt 0.211635 0.389163
vt 0.034921 0.866913
vt 0.257099 0.690477
vt 0.274955 0.467350
vt 0.286464 0.383867
vt 0.043859 0.886067
vt 0.134231 0.888798
vt 0.368632 0.282083
vt 0.297972 0.300383
vt 0.364269 0.192759
vt 0.452732 0.145291
vt 0.457141 0.277117
vt 0.537984 0.287213
vt 0.544244 0.217471
vt 0.306931 0.250246
vt 0.358722 0.180347
vt 0.302903 0.235719
vt 0.231903 0.314043
vt 0.231145 0.295354
vt 0.453488 0.131940
vt 0.452732 0.145291
vt 0.136241 0.308112
vt 0.147224 0.289281
vt 0.615011 0.298898
vt 0.548682 0.204183
vt 0.452732 0.145291
vt 0.629337 0.275398
vt 0.704885 0.320100
vt 0.698054 0.292122
vt 0.806744 0.279081
vt 0.813364 0.300735
vt 0.715293 0.393304
vt 0.822367 0.373838
vt 0.452732 0.145291
vt 0.453488 0.131940
vt 0.856247 0.061165
vt 0.758526 0.246620
vt 0.757006 0.072088
vt 0.864855 0.141552
vt 0.654703 0.073712
vt 0.642860 0.182572
vt 0.575793 0.112552
vt 0.552850 0.070979
vt 0.952789 0.041120
vt 0.478537 0.043972
vt 0.629797 0.465853
vt 0.543159 0.372576
vt 0.548334 0.457939
vt 0.622404 0.382375
vt 0.558471 0.682252
vt 0.652836 0.671251
vt 0.758278 0.672663
vt 0.725701 0.466509
vt 0.678262 0.892052
vt 0.770155 0.880892
vt 0.875083 0.659357
vt 0.891327 0.860180
vt 0.831369 0.446941
vt 0.466054 0.686671
vt 0.460028 0.465824
vt 0.363613 0.470662
vt 0.458585 0.371471
vt 0.366123 0.376373
vt 0.363132 0.688102
vt 0.460616 0.899678
vt 0.348841 0.889818
vt 0.773488 0.900985
vt 0.683320 0.921685
vt 0.572053 0.908361
vt 0.573549 0.935659
vt 0.461337 0.928311
vt 0.889067 0.880623
vt 0.344272 0.915347
vt 0.239587 0.907397
vt 0.244335 0.886809
vt 0.134653 0.869926
vt 0.148830 0.679332
vt 0.045562 0.663782
vt 0.191366 0.464284
vt 0.097291 0.450903
vt 0.116766 0.379508
vt 0.211635 0.389163
vt 0.034921 0.866913
vt 0.257099 0.690477
vt 0.274955 0.467350
vt 0.286464 0.383867
vt 0.043859 0.886067
vt 0.134231 0.888798
vt 0.368632 0.282083
vt 0.297972 0.300383
vt 0.364269 0.192759
vt 0.452732 0.145291
vt 0.457141 0.277117
vt 0.537984 0.287213
vt 0.544244 0.217471
vt 0.306931 0.250246
vt 0.358722 0.180347
vt 0.302903 0.235719
vt 0.231903 0.314043
vt 0.231145 0.295354
vt 0.453488 0.131940
vt 0.452732 0.145291
vt 0.136241 0.308112
vt 0.147224 0.289281
vt 0.615011 0.298898
vt 0.548682 0.204183
vt 0.452732 0.145291
vt 0.629337 0.275398
vt 0.704885 0.320100
vt 0.698054 0.292122
vt 0.806744 0.279081
vt 0.813364 0.300735
vt 0.715293 0.393304
vt 0.822367 0.373838
vt 0.452732 0.145291
vt 0.453488 0.131940
vt 0.856247 0.061165
vt 0.758526 0.246620
vt 0.864855 0.141552
vt 0.757006 0.072088
vt 0.654703 0.073712
vt 0.642860 0.182572
vt 0.575793 0.112552
vt 0.552850 0.070979
vt 0.952789 0.041120
vt 0.478537 0.043972
vn 0.019450 0.974616 -0.223038
vn 0.701014 0.673341 0.234930
vn -0.000552 0.988073 -0.153986
vn 0.708002 0.681542 0.185024
vn 0.689143 0.702486 0.177752
vn 0.020161 0.961966 -0.272424
vn -0.608078 0.524238 -0.596167
vn -0.643614 0.548507 -0.533761
vn -0.249615 0.965176 0.078278
vn -0.780349 0.581687 -0.229553
vn -0.795557 -0.166330 -0.582601
vn -0.956578 -0.052148 -0.286773
vn -0.853283 -0.150098 -0.499379
vn 0.898178 0.049632 0.436822
vn 0.913661 0.055255 0.402703
vn 0.725702 -0.551335 0.411564
vn 0.909679 0.067637 0.409768
vn 0.721819 -0.553203 0.415864
vn 0.714053 -0.541931 0.443215
vn 0.655977 0.103591 0.747638
vn 0.454576 -0.449043 0.769234
vn -0.881537 0.440493 0.169878
vn -0.478258 0.764935 0.431444
vn 0.368016 0.760315 0.535243
vn 0.015968 0.622001 0.782853
vn 0.265462 0.143574 0.953371
vn -0.981649 0.051153 0.183706
vn 0.126640 -0.259656 0.957361
vn -0.387218 -0.435590 0.812603
vn -0.095725 -0.834150 0.543168
vn -0.801043 -0.589531 0.103840
vn -0.550754 -0.781172 -0.294008
vn -0.795557 -0.166330 -0.582601
vn -0.579743 -0.782683 -0.226508
vn -0.853283 -0.150098 -0.499379
vn -0.909466 -0.114430 -0.399721
vn -0.556023 -0.825348 -0.098177
vn -0.956578 -0.052148 -0.286773
vn 0.141425 -0.972958 0.182627
vn 0.143715 -0.974764 0.170823
vn 0.192384 -0.950870 0.242558
vn -0.981649 0.051153 0.183706
vn -0.835422 -0.258336 0.485112
vn 0.706358 -0.509476 0.491419
vn 0.263766 -0.894414 0.361180
vn 0.692645 -0.721246 0.006933
vn 0.960953 0.001800 -0.276707
vn 0.879693 0.060682 0.471654
vn 0.694271 0.649072 0.310955
vn 0.626625 0.753023 -0.200741
vn 0.220006 -0.974677 -0.040021
vn -0.260968 -0.445637 -0.856331
vn -0.305254 -0.288794 -0.907424
vn -0.379008 -0.860876 -0.339478
vn -0.266643 -0.493689 -0.827752
vn -0.031022 -0.037884 -0.998801
vn 0.960953 0.001800 -0.276707
vn -0.697204 -0.155554 -0.699792
vn -0.281855 -0.161358 -0.945791
vn 0.049492 0.916502 -0.396956
vn -0.410740 0.190543 -0.891620
vn 0.960953 0.001800 -0.276707
vn -0.247755 0.334251 -0.909337
vn -0.493683 0.486881 -0.720572
vn -0.226925 0.161419 -0.960442
vn -0.281855 -0.161358 -0.945791
vn -0.697204 -0.155554 -0.699792
vn -0.687929 0.577248 -0.439930
vn -0.909466 -0.114430 -0.399721
vn 0.960953 0.001800 -0.276707
vn -0.031022 -0.037884 -0.998801
vn -0.695214 -0.593633 -0.405312
vn -0.031022 -0.037884 -0.998801
vn -0.889226 -0.113028 -0.443284
vn -0.410740 0.190543 -0.891620
vn -0.725865 0.416543 -0.547369
vn -0.260968 -0.445637 -0.856331
vn -0.305254 -0.288794 -0.907424
vn -0.306347 0.648373 -0.696968
vn -0.247755 0.334251 -0.909337
vn -0.266643 -0.493689 -0.827752
vn -0.019450 0.974616 -0.223038
vn -0.701014 0.673340 0.234930
vn -0.708002 0.681542 0.185024
vn 0.000552 0.988073 -0.153986
vn -0.689143 0.702486 0.177752
vn -0.020161 0.961966 -0.272424
vn 0.608078 0.524238 -0.596167
vn 0.643614 0.548507 -0.533761
vn 0.249615 0.965176 0.078278
vn 0.780349 0.581687 -0.229553
vn 0.795557 -0.166330 -0.582601
vn 0.956578 -0.052148 -0.286773
vn 0.853282 -0.150098 -0.499379
vn -0.898178 0.049632 0.436822
vn -0.913661 0.055255 0.402703
vn -0.725702 -0.551335 0.411564
vn -0.909679 0.067637 0.409768
vn -0.721819 -0.553203 0.415864
vn -0.714053 -0.541931 0.443215
vn -0.655977 0.103591 0.747638
vn -0.454576 -0.449043 0.769234
vn 0.881537 0.440493 0.169878
vn 0.478258 0.764935 0.431444
vn -0.368016 0.760315 0.535243
vn -0.015968 0.622001 0.782853
vn -0.265462 0.143574 0.953371
vn 0.981649 0.051153 0.183706
vn -0.126640 -0.259656 0.957361
vn 0.387218 -0.435590 0.812603
vn 0.095725 -0.834150 0.543168
vn 0.801043 -0.589531 0.103840
vn 0.550754 -0.781172 -0.294008
vn 0.795557 -0.166330 -0.582601
vn 0.579743 -0.782683 -0.226509
vn 0.853282 -0.150098 -0.499379
vn 0.909466 -0.114430 -0.399721
vn 0.556023 -0.825348 -0.098177
vn 0.956578 -0.052148 -0.286773
vn -0.141425 -0.972958 0.182627
vn -0.143715 -0.974764 0.170823
vn -0.192384 -0.950870 0.242558
vn 0.981649 0.051153 0.183706
vn 0.835422 -0.258336 0.485112
vn -0.706358 -0.509476 0.491419
vn -0.263766 -0.894414 0.361180
vn -0.692645 -0.721246 0.006933
vn -0.960953 0.001800 -0.276707
vn -0.879693 0.060682 0.471654
vn -0.694271 0.649072 0.310955
vn -0.626625 0.753023 -0.200741
vn -0.220006 -0.974677 -0.040020
vn 0.260968 -0.445637 -0.856331
vn 0.305254 -0.288794 -0.907424
vn 0.379008 -0.860876 -0.339478
vn 0.266643 -0.493689 -0.827752
vn 0.031022 -0.037884 -0.998801
vn -0.960953 0.001800 -0.276707
vn 0.697204 -0.155554 -0.699792
vn 0.281855 -0.161358 -0.945791
vn -0.049491 0.916502 -0.396956
vn 0.410740 0.190543 -0.891620
vn -0.960953 0.001800 -0.276707
vn 0.247755 0.334251 -0.909337
vn 0.493683 0.486881 -0.720571
vn 0.226925 0.161419 -0.960442
vn 0.281855 -0.161358 -0.945791
vn 0.697204 -0.155554 -0.699792
vn 0.687929 0.577248 -0.439930
vn 0.909466 -0.114430 -0.399721
vn -0.960953 0.001800 -0.276707
vn 0.031022 -0.037884 -0.998801
vn 0.695214 -0.593633 -0.405312
vn 0.031022 -0.037884 -0.998801
vn 0.410740 0.190543 -0.891620
vn 0.889226 -0.113028 -0.443285
vn 0.725865 0.416543 -0.547369
vn 0.260968 -0.445637 -0.856331
vn 0.305254 -0.288794 -0.907424
vn 0.306347 0.648373 -0.696968
vn 0.247755 0.334251 -0.909337
vn 0.266643 -0.493689 -0.827752
usemtl material
f 1/0/1 2/0/2 3/0/3
f 1/0/1 4/0/4 2/0/2
f 5/0/5 4/0/4 1/0/1
f 5/0/5 1/0/1 6/0/6
f 7/0/7 6/0/6 1/0/1
f 7/0/7 1/0/1 8/0/8
f 3/0/3 8/0/8 1/0/1
f 9/0/9 6/0/6 7/0/7
f 9/0/9 7/0/7 10/0/10
f 10/0/10 7/0/7 11/0/11
f 10/0/10 11/0/11 12/0/12
f 7/0/7 13/0/13 11/0/11
f 7/0/7 8/0/8 13/0/13
f 14/0/14 4/0/4 5/0/5
f 14/0/14 15/0/15 4/0/4
f 16/0/16 15/0/15 14/0/14
f 16/0/16 17/0/17 15/0/15
f 17/0/17 4/0/4 15/0/15
f 17/0/17 2/0/2 4/0/4
f 16/0/16 18/0/18 17/0/17
f 16/0/16 14/0/14 19/0/19
f 20/0/20 19/0/19 14/0/14
f 20/0/20 14/0/14 5/0/5
f 20/0/20 21/0/21 19/0/19
f 9/0/9 10/0/10 22/0/22
f 22/0/22 10/0/10 12/0/12
f 9/0/9 22/0/22 23/0/23
f 24/0/24 9/0/9 23/0/23
f 20/0/20 5/0/5 24/0/24
f 20/0/20 24/0/24 25/0/25
f 24/0/24 23/0/23 25/0/25
f 20/0/20 25/0/25 26/0/26
f 22/0/22 12/0/12 27/0/27
f 28/0/28 20/0/20 26/0/26
f 28/0/28 21/0/21 20/0/20
f 21/0/21 28/0/28 29/0/29
f 21/0/21 29/0/29 30/0/30
f 29/0/29 31/0/31 30/0/30
f 30/0/30 31/0/31 32/0/32
f 31/0/31 33/0/33 32/0/32
f 34/0/34 32/0/32 33/0/33
f 34/0/34 33/0/33 35/0/35
f 34/0/34 35/0/35 36/0/36
f 34/0/34 36/0/36 37/0/37
f 31/0/31 38/0/38 33/0/33
f 30/0/30 32/0/32 39/0/39
f 39/0/39 32/0/32 34/0/34
f 39/0/39 34/0/34 40/0/40
f 40/0/40 34/0/34 37/0/37
f 40/0/40 37/0/37 41/0/41
f 31/0/31 42/0/42 38/0/38
f 31/0/31 43/0/43 42/0/42
f 29/0/29 43/0/43 31/0/31
f 40/0/40 19/0/19 39/0/39
f 40/0/40 16/0/16 19/0/19
f 41/0/41 16/0/16 40/0/40
f 21/0/21 39/0/39 19/0/19
f 21/0/21 30/0/30 39/0/39
f 41/0/41 18/0/18 16/0/16
f 44/0/44 18/0/18 41/0/41
f 44/0/44 41/0/41 45/0/45
f 45/0/45 46/0/46 44/0/44
f 44/0/44 46/0/46 47/0/47
f 44/0/44 47/0/47 48/0/48
f 47/0/47 49/0/49 48/0/48
f 47/0/47 50/0/50 49/0/49
f 45/0/45 51/0/51 46/0/46
f 51/0/51 52/0/52 46/0/46
f 51/0/51 53/0/53 52/0/52
f 53/0/53 51/0/51 54/0/54
f 54/0/54 51/0/51 45/0/45
f 53/0/53 54/0/54 55/0/55
f 46/0/46 52/0/52 56/0/56
f 46/0/46 56/0/56 57/0/57
f 58/0/58 55/0/55 54/0/54
f 58/0/58 59/0/59 55/0/55
f 48/0/48 49/0/49 2/0/2
f 48/0/48 2/0/2 17/0/17
f 60/0/60 49/0/49 50/0/50
f 61/0/61 60/0/60 50/0/50
f 62/0/62 61/0/61 50/0/50
f 61/0/61 63/0/63 60/0/60
f 63/0/63 64/0/64 60/0/60
f 63/0/63 65/0/65 64/0/64
f 66/0/66 64/0/64 65/0/65
f 66/0/66 67/0/67 64/0/64
f 67/0/67 68/0/68 64/0/64
f 67/0/67 69/0/69 68/0/68
f 64/0/64 3/0/3 60/0/60
f 64/0/64 68/0/68 3/0/3
f 3/0/3 49/0/49 60/0/60
f 3/0/3 2/0/2 49/0/49
f 68/0/68 69/0/69 13/0/13
f 68/0/68 13/0/13 8/0/8
f 3/0/3 68/0/68 8/0/8
f 70/0/70 71/0/71 61/0/61
f 72/0/72 73/0/73 74/0/74
f 72/0/72 75/0/75 73/0/73
f 76/0/76 74/0/74 73/0/73
f 76/0/76 73/0/73 77/0/77
f 76/0/76 77/0/77 78/0/78
f 76/0/76 78/0/78 79/0/79
f 72/0/72 80/0/80 75/0/75
f 78/0/78 81/0/81 79/0/79
f 6/0/6 24/0/24 5/0/5
f 6/0/6 9/0/9 24/0/24
f 82/0/82 83/0/83 84/0/84
f 82/0/82 85/0/85 83/0/83
f 86/0/86 82/0/82 84/0/84
f 86/0/86 87/0/87 82/0/82
f 88/0/88 82/0/82 87/0/87
f 88/0/88 89/0/89 82/0/82
f 90/0/90 88/0/88 87/0/87
f 90/0/90 91/0/91 88/0/88
f 91/0/91 92/0/92 88/0/88
f 91/0/91 93/0/93 92/0/92
f 88/0/88 94/0/94 89/0/89
f 88/0/88 92/0/92 94/0/94
f 95/0/95 86/0/86 84/0/84
f 95/0/95 84/0/84 96/0/96
f 83/0/83 96/0/96 84/0/84
f 97/0/97 95/0/95 96/0/96
f 97/0/97 96/0/96 98/0/98
f 83/0/83 98/0/98 96/0/96
f 97/0/97 98/0/98 99/0/99
f 97/0/97 100/0/100 95/0/95
f 101/0/101 95/0/95 100/0/100
f 101/0/101 86/0/86 95/0/95
f 101/0/101 100/0/100 102/0/102
f 90/0/90 103/0/103 91/0/91
f 103/0/103 93/0/93 91/0/91
f 90/0/90 104/0/104 103/0/103
f 105/0/105 104/0/104 90/0/90
f 101/0/101 105/0/105 86/0/86
f 101/0/101 106/0/106 105/0/105
f 105/0/105 106/0/106 104/0/104
f 101/0/101 107/0/107 106/0/106
f 103/0/103 108/0/108 93/0/93
f 109/0/109 101/0/101 102/0/102
f 109/0/109 107/0/107 101/0/101
f 102/0/102 110/0/110 109/0/109
f 102/0/102 111/0/111 110/0/110
f 110/0/110 111/0/111 112/0/112
f 111/0/111 113/0/113 112/0/112
f 112/0/112 113/0/113 114/0/114
f 115/0/115 114/0/114 113/0/113
f 115/0/115 116/0/116 114/0/114
f 115/0/115 117/0/117 116/0/116
f 115/0/115 118/0/118 117/0/117
f 112/0/112 114/0/114 119/0/119
f 111/0/111 120/0/120 113/0/113
f 120/0/120 115/0/115 113/0/113
f 120/0/120 121/0/121 115/0/115
f 121/0/121 118/0/118 115/0/115
f 121/0/121 122/0/122 118/0/118
f 112/0/112 119/0/119 123/0/123
f 112/0/112 123/0/123 124/0/124
f 110/0/110 112/0/112 124/0/124
f 121/0/121 120/0/120 100/0/100
f 121/0/121 100/0/100 97/0/97
f 102/0/102 120/0/120 111/0/111
f 102/0/102 100/0/100 120/0/120
f 99/0/99 121/0/121 97/0/97
f 99/0/99 122/0/122 121/0/121
f 125/0/125 122/0/122 99/0/99
f 125/0/125 126/0/126 122/0/122
f 118/0/118 122/0/122 126/0/126
f 126/0/126 125/0/125 127/0/127
f 125/0/125 128/0/128 127/0/127
f 125/0/125 129/0/129 128/0/128
f 99/0/99 129/0/129 125/0/125
f 128/0/128 129/0/129 130/0/130
f 128/0/128 130/0/130 131/0/131
f 126/0/126 127/0/127 132/0/132
f 132/0/132 127/0/127 133/0/133
f 132/0/132 133/0/133 134/0/134
f 134/0/134 135/0/135 132/0/132
f 135/0/135 126/0/126 132/0/132
f 134/0/134 136/0/136 135/0/135
f 127/0/127 137/0/137 133/0/133
f 127/0/127 138/0/138 137/0/137
f 139/0/139 135/0/135 136/0/136
f 139/0/139 136/0/136 140/0/140
f 129/0/129 83/0/83 130/0/130
f 129/0/129 98/0/98 83/0/83
f 141/0/141 131/0/131 130/0/130
f 83/0/83 141/0/141 130/0/130
f 142/0/142 131/0/131 141/0/141
f 143/0/143 131/0/131 142/0/142
f 142/0/142 141/0/141 144/0/144
f 144/0/144 141/0/141 145/0/145
f 144/0/144 145/0/145 146/0/146
f 147/0/147 146/0/146 145/0/145
f 147/0/147 145/0/145 148/0/148
f 148/0/148 145/0/145 149/0/149
f 148/0/148 149/0/149 150/0/150
f 145/0/145 85/0/85 149/0/149
f 145/0/145 141/0/141 85/0/85
f 83/0/83 85/0/85 141/0/141
f 150/0/150 149/0/149 89/0/89
f 150/0/150 89/0/89 94/0/94
f 149/0/149 82/0/82 89/0/89
f 149/0/149 85/0/85 82/0/82
f 151/0/151 142/0/142 152/0/152
f 153/0/153 154/0/154 155/0/155
f 153/0/153 156/0/156 154/0/154
f 157/0/157 154/0/154 156/0/156
f 157/0/157 158/0/158 154/0/154
f 157/0/157 159/0/159 158/0/158
f 157/0/157 160/0/160 159/0/159
f 153/0/153 155/0/155 161/0/161
f 159/0/159 160/0/160 162/0/162
f 87/0/87 105/0/105 90/0/90
f 87/0/87 86/0/86 105/0/105
f 17/0/17 44/0/44 48/0/48
f 17/0/17 18/0/18 44/0/44
f 37/0/37 58/0/58 54/0/54
f 37/0/37 36/0/36 58/0/58
f 41/0/41 37/0/37 54/0/54
f 41/0/41 54/0/54 45/0/45
f 99/0/99 98/0/98 129/0/129
f 117/0/117 135/0/135 139/0/139
f 117/0/117 118/0/118 135/0/135
f 118/0/118 126/0/126 135/0/135
